<svg width="34" height="34" viewBox="0 0 34 34" fill="none" xmlns="http://www.w3.org/2000/svg">
<path d="M21.3886 11.737C20.9017 11.5795 20.6502 11.6326 20.1396 11.5752C19.3502 11.4868 19.0357 11.1693 18.9023 10.3525C18.8277 9.89646 18.9156 9.22894 18.7252 8.81563C18.3607 8.02752 17.5075 7.67397 16.6506 7.87585C15.9271 8.04638 15.3252 8.79013 15.2917 9.5538C15.2537 10.4253 15.7366 11.1693 16.5656 11.4259C16.9596 11.5481 17.3782 11.6097 17.7896 11.6408C18.544 11.6974 18.6022 12.1288 18.8062 12.4839C18.9347 12.7078 19.0596 12.9283 19.0596 13.5958C19.0596 14.2633 18.934 14.4841 18.8062 14.708C18.6022 15.0621 18.3504 15.2942 17.5957 15.3516C17.1845 15.3829 16.7651 15.4446 16.372 15.5668C15.5427 15.8241 15.0598 16.5671 15.0981 17.4389C15.1313 18.2023 15.7334 18.946 16.457 19.1166C17.3139 19.3192 18.1668 18.9652 18.5315 18.1768C18.7228 17.7635 18.8277 17.2952 18.9023 16.8394C19.0365 16.0226 19.351 15.7051 20.1396 15.6164C20.6504 15.5591 21.1787 15.6164 21.6574 15.337C22.1629 14.9569 22.6147 14.3863 22.6147 13.5958C22.6147 12.8053 22.1278 11.9766 21.3886 11.737Z" fill="#F44250"/>
<path d="M13.2892 15.4484C12.2939 15.4484 11.4824 14.6117 11.4824 13.5864C11.4824 12.5608 12.2939 11.7244 13.2892 11.7244C14.2845 11.7244 15.096 12.5608 15.096 13.5864C15.096 14.6112 14.2835 15.4484 13.2892 15.4484ZM9.96041 19.2325C8.96697 19.2301 8.15761 18.3905 8.16 17.3639C8.16239 16.3393 8.97733 15.5053 9.97316 15.5085C10.9674 15.5111 11.7768 16.3508 11.7736 17.3771C11.7712 18.4011 10.9562 19.2352 9.96041 19.2325ZM23.3862 19.2325C22.3895 19.2384 21.5714 18.4075 21.5658 17.3846C21.5603 16.3574 22.3664 15.5143 23.3588 15.5085C24.3557 15.5029 25.1738 16.3335 25.1794 17.3567C25.1847 18.3828 24.3788 19.2267 23.3862 19.2325ZM3.44197 25.7688C3.31553 25.6325 3.29747 25.4667 3.24328 24.9097C3.20078 24.477 2.97181 24.2579 2.58002 24.1808C3.04433 24.1216 3.38778 23.7659 3.38778 23.2209C3.38778 22.492 2.89956 22.0357 1.91702 22.0357H0V25.7688H1.00672V24.5304H1.68778C2.0315 24.5304 2.2185 24.6252 2.24852 25.0518C2.2788 25.437 2.32688 25.6681 2.40523 25.769L3.44197 25.7688ZM1.00672 23.7543V22.8416H1.73612C2.17016 22.8416 2.38717 23.0015 2.38717 23.3038C2.38717 23.6475 2.17016 23.7543 1.73612 23.7543H1.00672ZM5.67773 24.8266C5.58742 25.034 5.41848 25.123 5.15312 25.123C4.85775 25.123 4.61656 24.969 4.59266 24.643H6.47939V24.3763C6.47939 23.6592 6.00312 23.0549 5.10505 23.0549C4.267 23.0549 3.64013 23.6533 3.64013 24.489C3.64013 25.3302 4.25505 25.8399 5.117 25.8399C5.82834 25.8399 6.32294 25.5021 6.46133 24.8978L5.67773 24.8266ZM4.60461 24.1808C4.64073 23.932 4.77939 23.7423 5.09283 23.7423C5.38236 23.7423 5.53908 23.9436 5.55103 24.1806L4.60461 24.1808ZM8.43067 24.6667C8.43067 25.0104 8.20755 25.2117 7.93023 25.2117C7.76767 25.2117 7.6593 25.123 7.6593 24.9868C7.6593 24.8149 7.79769 24.7437 8.03277 24.6964L8.43067 24.6252V24.6667ZM9.38931 24.0919C9.38931 23.3571 8.8647 23.0549 8.15336 23.0549C7.34586 23.0549 6.90545 23.4578 6.82125 24.0385L7.72544 24.098C7.76767 23.9022 7.87605 23.7659 8.09306 23.7659C8.32814 23.7659 8.43067 23.8964 8.43067 24.1155V24.1572L7.67709 24.2815C7.09272 24.3825 6.71872 24.6016 6.71872 25.1111C6.71872 25.5616 7.06244 25.8283 7.58678 25.8283C8.0147 25.8283 8.3223 25.6681 8.47902 25.36C8.56933 25.6622 8.82858 25.828 9.16008 25.828C9.43739 25.828 9.63023 25.751 9.76889 25.6564V25.1464C9.70006 25.1746 9.62627 25.1888 9.55187 25.1881C9.44934 25.1881 9.38931 25.1289 9.38931 24.9926V24.0919ZM9.88019 24.4475C9.88019 25.2888 10.5012 25.8399 11.3512 25.8399C12.1587 25.8399 12.6111 25.3302 12.6775 24.6903L11.8756 24.6311C11.8092 24.957 11.6466 25.1172 11.3632 25.1172C11.0678 25.1172 10.8627 24.9214 10.8627 24.4475C10.8627 23.9737 11.0678 23.7779 11.3632 23.7779C11.6466 23.7779 11.8094 23.932 11.8758 24.2579L12.6775 24.2045C12.6111 23.5704 12.159 23.0549 11.3512 23.0549C10.5012 23.0549 9.88019 23.6119 9.88019 24.4475ZM13.1474 25.034C13.1474 25.6564 13.575 25.8399 14.0274 25.8399C14.395 25.8399 14.6304 25.751 14.8352 25.603V24.9806C14.6723 25.046 14.5398 25.0696 14.4192 25.0696C14.2202 25.0696 14.1119 24.9806 14.1119 24.7557V23.7893H14.811V23.1258H14.1119V22.3969H13.4969L13.4066 22.7406C13.3402 22.9837 13.2557 23.1258 12.9843 23.1672L12.7856 23.197V23.7893H13.1471V25.0338L13.1474 25.034ZM19.7606 25.7688C19.6342 25.6325 19.6159 25.4667 19.5617 24.9097C19.5195 24.477 19.2905 24.2579 18.8987 24.1808C19.3627 24.1216 19.7062 23.7659 19.7062 23.2209C19.7062 22.492 19.2182 22.0357 18.2354 22.0357H16.3187V25.7688H17.3254V24.5304H18.0065C18.3502 24.5304 18.5369 24.6252 18.5669 25.0518C18.5972 25.437 18.6455 25.6681 18.7236 25.769L19.7606 25.7688ZM17.3254 23.7543V22.8416H18.0548C18.4888 22.8416 18.7056 23.0015 18.7056 23.3038C18.7056 23.6475 18.4888 23.7543 18.0548 23.7543H17.3254ZM20.9413 24.4475C20.9413 24.0504 21.0861 23.7779 21.4296 23.7779C21.7672 23.7779 21.9178 24.0504 21.9178 24.4473C21.9178 24.8441 21.7672 25.1169 21.4296 25.1169C21.0861 25.1169 20.9413 24.8444 20.9413 24.4475ZM22.9006 24.4475C22.9006 23.6297 22.3037 23.0549 21.4296 23.0549C20.5495 23.0549 19.9588 23.6297 19.9588 24.4475C19.9588 25.271 20.5495 25.8399 21.4296 25.8399C22.3035 25.8399 22.9006 25.271 22.9006 24.4475ZM25.0601 24.4236C25.0601 24.8266 24.9398 25.0874 24.6325 25.0874C24.3368 25.0874 24.234 24.8919 24.234 24.5363V23.1261H23.2581V24.7913C23.2581 25.3422 23.4812 25.8399 24.2165 25.8399C24.6202 25.8399 24.9156 25.6681 25.0604 25.3719V25.7688H26.0368V23.1261H25.0604L25.0601 24.4236ZM26.6637 25.034C26.6637 25.6564 27.0916 25.8399 27.5437 25.8399C27.9113 25.8399 28.1467 25.751 28.3515 25.603V24.9806C28.1887 25.046 28.0561 25.0696 27.9355 25.0696C27.7368 25.0696 27.6279 24.9806 27.6279 24.7557V23.7893H28.3273V23.1258H27.6279V22.3969H27.0133L26.923 22.7406C26.8565 22.9837 26.7721 23.1258 26.5006 23.1672L26.3019 23.197V23.7893H26.6637V25.034ZM30.6205 24.8269C30.5301 25.034 30.3615 25.123 30.0961 25.123C29.8007 25.123 29.5598 24.969 29.5354 24.643H31.4224V24.3763C31.4224 23.6592 30.9461 23.0549 30.0478 23.0549C29.21 23.0549 28.5828 23.6533 28.5828 24.489C28.5828 25.3302 29.1978 25.8399 30.06 25.8399C30.7713 25.8399 31.2657 25.5021 31.4043 24.8978L30.6205 24.8269ZM29.5476 24.1808C29.5837 23.932 29.7224 23.7423 30.0358 23.7423C30.3253 23.7423 30.4821 23.9436 30.4938 24.1806L29.5476 24.1808ZM33.9038 23.1555C33.8374 23.1024 33.6929 23.0549 33.5301 23.0549C33.1744 23.0549 32.8913 23.2979 32.7946 23.5941V23.1261H31.8182V25.769H32.7946V24.5602C32.7946 24.1155 33.0177 23.9498 33.3792 23.9498C33.5662 23.9498 33.711 23.9853 33.8438 24.0624L33.9038 23.1555Z" fill="#121212"/>
</svg>
