<svg width="64" height="35" viewBox="0 0 64 35" fill="none" xmlns="http://www.w3.org/2000/svg">
<g clip-path="url(#clip0_4144_247)">
<path d="M19.5165 23.147C22.721 23.147 25.3188 20.5492 25.3188 17.3445C25.3188 14.1402 22.721 11.5425 19.5163 11.5425C16.312 11.5425 13.7142 14.14 13.7142 17.3447C13.7142 20.5495 16.312 23.147 19.5165 23.147ZM5.80225 34.7512C9.00675 34.7512 11.6045 32.1537 11.6045 28.949C11.6045 25.7447 9.00675 23.147 5.802 23.147C2.598 23.147 0 25.7445 0 28.949C0 32.1535 2.5975 34.7512 5.80225 34.7512ZM58.1978 34.7515C61.4023 34.7515 64 32.154 64 28.9492C64 25.745 61.4025 23.1472 58.1978 23.1472C54.993 23.1472 52.3955 25.7447 52.3955 28.9492C52.3955 32.1537 54.9933 34.7517 58.198 34.7517" fill="black"/>
<path d="M39.1413 17.5893C38.9558 15.6508 38.8613 14.0372 37.3763 12.9032C35.4958 11.4672 33.3652 12.399 30.7412 11.4517C28.1625 10.828 26.25 8.53875 26.25 5.81C26.25 2.60125 28.8945 0 32.1565 0C34.5728 0 36.65 1.42675 37.565 3.47075C38.9652 6.13075 38.055 8.8375 39.8145 10.201C41.8977 11.8155 44.7065 10.6333 47.8405 12.163C48.8409 12.6219 49.693 13.3515 50.3005 14.2692C50.9208 15.2064 51.2511 16.3056 51.25 17.4295C51.25 20.1583 49.3375 22.4478 46.759 23.0715C44.1347 24.0188 42.0042 23.087 40.1237 24.523C38.0087 26.138 39.141 28.8398 37.4173 31.6935C36.439 33.573 34.4505 34.8592 32.1565 34.8592C28.8945 34.8592 26.25 32.258 26.25 29.0492C26.25 26.7185 27.6455 24.7082 29.6595 23.7827C32.7935 22.2527 35.602 23.4352 37.6855 21.8207C38.8873 20.8892 39.1413 19.4525 39.1413 17.5893Z" fill="#D0021B"/>
</g>
<defs>
<clipPath id="clip0_4144_247">
<rect width="64" height="35" fill="white"/>
</clipPath>
</defs>
</svg>
