<svg width="100" height="103" viewBox="0 0 100 103" fill="none" xmlns="http://www.w3.org/2000/svg">
<mask id="mask0_4128_257" style="mask-type:luminance" maskUnits="userSpaceOnUse" x="0" y="0" width="100" height="103">
<path d="M99.1494 0.257324H0.185547V102.147H99.1494V0.257324Z" fill="white"/>
</mask>
<g mask="url(#mask0_4128_257)">
<path fill-rule="evenodd" clip-rule="evenodd" d="M98.2628 59.6897C98.2628 60.0267 98.2628 60.3637 98.2628 60.7006C98.2628 61.6052 98.2628 62.4742 98.1387 63.4319C97.967 65.6379 97.6457 67.8297 97.1769 69.9921C97.1561 70.0877 97.1455 70.1854 97.1455 70.2832C97.1455 70.3858 97.1338 70.4878 97.1108 70.5877L97.0391 70.8985C96.4545 73.3869 95.6716 75.8244 94.698 78.1878L94.6093 78.3829C93.6094 80.7435 92.4233 83.0208 91.0622 85.1933L90.8139 85.6012L90.6543 85.8495C89.433 87.7597 88.0757 89.5793 86.5929 91.2943C86.0076 92.0037 85.3869 92.6777 84.8193 93.3339L84.1099 94.0433C83.8793 94.2916 83.631 94.5222 83.3828 94.7527C82.7265 95.3735 82.0526 95.9942 81.3609 96.5263C79.6425 98.0049 77.8232 99.362 75.9161 100.588L75.6501 100.747L75.5562 100.807C75.3831 100.917 75.1567 100.892 75.0116 100.747L67.545 93.2807L65.6118 91.3475L64.2639 89.9996L60.9651 86.7008L60.3266 86.0624L60.0606 85.7963L55.0415 80.7772L52.5053 78.3829C50.9381 76.8157 48.3972 76.8157 46.83 78.3829L45.9255 79.2874L44.3647 80.8304L39.3456 85.8495L39.0796 86.1156L38.4411 86.754L35.16 90.0528L33.7944 91.4007L31.879 93.3339L30.9745 94.2384L29.6088 95.5863L24.3946 100.801C24.2495 100.946 24.0231 100.97 23.85 100.86L23.7561 100.801L23.4901 100.641C21.583 99.4152 19.7637 98.0581 18.0453 96.5795C17.3536 95.9942 16.6797 95.3735 16.0235 94.8059L15.2963 94.0965L14.6046 93.3871C13.9661 92.7309 13.3454 92.0569 12.8311 91.3475C11.3274 89.6132 9.94659 87.7761 8.69871 85.8495L8.53909 85.5835L8.29079 85.1933C6.94903 83.0368 5.77256 80.7819 4.77145 78.4477C4.75302 78.4048 4.7401 78.3593 4.73863 78.3126C4.73607 78.2306 4.72705 78.1481 4.69563 78.0724C3.73094 75.7483 2.9581 73.349 2.38488 70.8985L2.34634 70.7315C2.30137 70.5367 2.29547 70.3352 2.27847 70.1359C1.79256 67.921 1.4607 65.675 1.28528 63.4142C1.28528 62.5097 1.17887 61.6406 1.16113 60.7006V58.6611C1.16113 57.7388 1.16113 56.8875 1.28528 55.9475C1.45816 53.7195 1.78297 51.5059 2.25743 49.3221C2.27137 49.258 2.28133 49.1929 2.28262 49.1273C2.28505 49.0044 2.29201 48.8811 2.31868 48.7611L2.38488 48.4632C2.96107 46.0102 3.73514 43.6081 4.69945 41.2803C4.72837 41.2105 4.73619 41.1344 4.73887 41.0589C4.74033 41.0174 4.75194 40.9772 4.76825 40.939C5.76998 38.5966 6.94752 36.3332 8.29079 34.1684L8.50026 33.8392C8.52614 33.7985 8.55147 33.7576 8.57628 33.7162C8.61213 33.6565 8.66567 33.5672 8.69871 33.5122C9.09545 32.9022 9.50464 32.3006 9.926 31.7078C11.3666 29.681 14.2651 29.5724 16.0235 31.3307L17.9211 33.2639L18.0276 33.3703L18.1694 33.5122L23.2418 38.549C23.3224 38.6297 23.3291 38.7582 23.2578 38.8472C22.7012 39.5425 22.171 40.2542 21.6101 40.9965C20.7148 42.3306 19.9204 43.7297 19.2336 45.1821C18.7345 46.2501 18.2963 47.3456 17.9211 48.4632C17.3776 49.9833 16.9507 51.5426 16.6442 53.1276C16.4623 53.9875 16.3266 54.8629 16.2229 55.7537C16.2078 55.8828 16.2008 56.0127 16.2008 56.1426C15.9702 58.4426 15.9645 60.7595 16.1836 63.0603C16.1948 63.1779 16.2008 63.296 16.2008 63.4142C16.3072 64.3719 16.4491 65.3296 16.6442 66.2518C17.1913 68.9999 18.079 71.669 19.2868 74.1973C19.9775 75.6477 20.7718 77.0465 21.6633 78.3829C22.1665 79.1208 22.7013 79.8587 23.3278 80.5666C23.3853 80.6316 23.4868 80.6302 23.5433 80.5644L25.7425 78.3829L28.5624 75.5452L31.0277 73.0977L33.2091 70.8985L33.8476 70.2601L38.4943 65.6134L39.1505 64.9749L40.6935 63.4142L44.4357 59.6897L48.2133 55.9121C49.0655 55.0599 50.4471 55.0599 51.2993 55.9121L53.3921 58.129L54.9528 59.6897L58.7127 63.4319L60.2734 64.9749L60.9119 65.6134L65.5586 70.2601L66.1971 70.8985L73.6815 78.3829L75.8629 80.5644C75.929 80.6304 76.0379 80.6239 76.0952 80.5502C76.6426 79.8473 77.1782 79.1151 77.7606 78.3829C78.6037 77.0362 79.3504 75.6316 79.9953 74.1796C80.5125 73.1127 80.9684 72.0173 81.3609 70.8985C81.8963 69.3819 82.323 67.8291 82.6379 66.2518C82.8195 65.3931 82.9551 64.5036 83.0588 63.6263C83.074 63.4972 83.0638 63.3656 83.0813 63.2368C83.3166 60.8779 83.3166 58.5015 83.0813 56.1426C83.0639 56.0257 83.0748 55.9058 83.0612 55.7884C82.9572 54.8918 82.8209 54.0107 82.6379 53.1453C82.3231 51.5623 81.8963 50.0036 81.3609 48.4809C80.969 47.3561 80.5131 46.2547 79.9953 45.1821C79.308 43.7505 78.5197 42.3695 77.6365 41.0497C77.14 40.305 76.6126 39.5911 75.9967 38.8937C75.9222 38.8095 75.9253 38.6817 76.0048 38.6023L81.0239 33.5654L81.1658 33.4235L81.29 33.3171L83.2054 31.3839C84.9753 29.6141 87.8862 29.6919 89.3693 31.7081C89.8047 32.3 90.2272 32.9015 90.6366 33.5122L90.7962 33.7782L91.0445 34.1684C92.3918 36.3249 93.5676 38.5838 94.561 40.9244C94.5812 40.972 94.5866 40.9887 94.5964 41.0394C94.6122 41.1212 94.6974 41.2155 94.7288 41.2925C95.6776 43.6197 96.4441 46.0171 97.0213 48.4632L97.0968 48.8027C97.1174 48.8953 97.1277 48.9832 97.1277 49.0781C97.1277 49.1719 97.1379 49.272 97.1578 49.3636C97.6273 51.5339 97.9491 53.7336 98.1209 55.9475C98.1209 56.852 98.2273 57.7211 98.2451 58.6788C98.2451 59.0158 98.2628 59.3527 98.2628 59.6897Z" fill="white" stroke="white" stroke-width="1.77355" stroke-miterlimit="10"/>
<path fill-rule="evenodd" clip-rule="evenodd" d="M59.7069 11.5371C60.1575 11.9877 60.1575 12.7182 59.7069 13.1688L58.359 14.5344L57.3304 15.5454L56.9047 15.971L54.5991 18.2766L54.1557 18.72L53.2867 19.589L52.2226 20.6532C50.8121 22.0636 48.5252 22.0636 47.1147 20.6532L46.0506 19.589L45.1816 18.72L44.7382 18.2766L42.4326 15.971L40.996 14.5344L39.6126 13.1688C39.1712 12.7175 39.1772 11.9944 39.6261 11.5505L42.0069 9.19605L42.3084 8.85907L42.4326 8.75266L43.142 8.04324L46.0506 5.13463L47.1147 4.0705C48.5252 2.66002 50.8121 2.66001 52.2226 4.0705L53.2867 5.13463L56.213 8.04324L59.7069 11.5371Z" fill="#0CAD30" stroke="#0CAD30" stroke-width="1.77355" stroke-miterlimit="10"/>
</g>
</svg>
